<svg height="32" viewBox="0 0 20 32" width="20" xmlns="http://www.w3.org/2000/svg"><path d="m6.326 22.638c-1.16-2.057-2.505-3.956-3.748-5.95-.415-.667-.774-1.37-1.173-2.062-.797-1.382-1.444-2.984-1.403-5.063.04-2.03.627-3.66 1.474-4.992 1.393-2.19 3.727-3.985 6.857-4.457 2.56-.386 4.96.266 6.662 1.26 1.3348909.78098306 2.4622835 1.87167622 3.287 3.18.854 1.337 1.442 2.916 1.492 4.975.0195668.9619076-.1120361 1.9209217-.39 2.842-.247.82-.643 1.506-.996 2.238-.688 1.43-1.55 2.74-2.416 4.05-2.578 3.905-4.998 7.886-6.058 13.342-.732-3.597-2.024-6.591-3.588-9.363zm3.562-9.634c1.9131144 0 3.464-1.5508856 3.464-3.464 0-1.91311437-1.5508856-3.464-3.464-3.464-1.91311437 0-3.464 1.55088563-3.464 3.464 0 1.9131144 1.55088563 3.464 3.464 3.464z" fill="#ccc"/></svg>